<?xml version="1.0" encoding="utf-8"?>
<!-- Generator: Adobe Illustrator 22.1.0, SVG Export Plug-In . SVG Version: 6.00 Build 0)  -->
<svg version="1.1"
	 id="svg1018" inkscape:export-filename="C:\Users\mdmoh\Desktop\papersylogo.png" inkscape:export-xdpi="192.082" inkscape:export-ydpi="192.082" inkscape:version="0.92.4 (5da689c313, 2019-01-14)" sodipodi:docname="papersylogo.svg" xmlns:cc="http://creativecommons.org/ns#" xmlns:dc="http://purl.org/dc/elements/1.1/" xmlns:inkscape="http://www.inkscape.org/namespaces/inkscape" xmlns:rdf="http://www.w3.org/1999/02/22-rdf-syntax-ns#" xmlns:sodipodi="http://sodipodi.sourceforge.net/DTD/sodipodi-0.dtd" xmlns:svg="http://www.w3.org/2000/svg"
	 xmlns="http://www.w3.org/2000/svg" xmlns:xlink="http://www.w3.org/1999/xlink" x="0px" y="0px" viewBox="0 0 595.3 841.9"
	 style="enable-background:new 0 0 595.3 841.9;" xml:space="preserve">
<style type="text/css">
	.st0{fill:#7367F0;}
	.st1{fill:#8F86F1;}
</style>
<sodipodi:namedview  bordercolor="#666666" borderopacity="1.0" id="base" inkscape:current-layer="layer1" inkscape:cx="-75.714286" inkscape:cy="560" inkscape:document-units="mm" inkscape:pageopacity="0.0" inkscape:pageshadow="2" inkscape:window-height="837" inkscape:window-maximized="1" inkscape:window-width="1440" inkscape:window-x="-8" inkscape:window-y="-8" inkscape:zoom="0.35" pagecolor="#ffffff" showgrid="false">
	</sodipodi:namedview>
<g id="layer1" inkscape:groupmode="layer" inkscape:label="Layer 1">
	<path id="path62" inkscape:connector-curvature="0" class="st0" d="M249.9,558.1l109-65.1l0,0l2-1.2l111-66.2l5.9-3.5l-5.9-3.5
		l-111-66.2l-1.9-1.2l-1.9,1.2l-109,65.1l-3.9,2.4v4.7v130.1v7L249.9,558.1L249.9,558.1"/>
	<path id="path84" inkscape:connector-curvature="0" class="st0" d="M135,624.3l111,66.2l5.9,3.5V287.3l-3.5-2.1l-109.4-65.3
		l-5.9-3.5v7c0,94.7,0,169.9,0,264.9v132.5v2.3L135,624.3L135,624.3"/>
	<path id="path98" inkscape:connector-curvature="0" class="st1" d="M249.9,146.6l-111,66.2l-5.9,3.5l5.9,3.5l111,66.2l111,66.2
		l1.5,0.9l0,0l109.4,65.3l5.9,3.5v-7V282.6v0v-2.3l-3.5-2.1l-109.4-65.3h0l-111-66.2l-1.9-1.2L249.9,146.6L249.9,146.6"/>
</g>
</svg>
